<?xml version="1.0" encoding="utf-8"?>
<!-- Generator: Adobe Illustrator 18.0.0, SVG Export Plug-In . SVG Version: 6.00 Build 0)  -->
<!DOCTYPE svg PUBLIC "-//W3C//DTD SVG 1.1//EN" "http://www.w3.org/Graphics/SVG/1.1/DTD/svg11.dtd">
<svg version="1.1" id="Layer_1" xmlns="http://www.w3.org/2000/svg" xmlns:xlink="http://www.w3.org/1999/xlink" x="0px" y="0px"
	 viewBox="0 0 35 35" xml:space="preserve">
<path fill="#FFFFFF" d="M26.4,11.3c0.1-2.2,0.2-7.8,0-8.1c-0.3-0.4-3.9-0.5-4.2,0c-0.2,0.3-0.1,2.1-0.1,3.5
	c-2.5-2.6-4.6-4.7-4.9-4.6C16.4,2.2,3,19.3,3.2,19.9c0,0.2,1.9,0.1,4.6,0c-1,4.6-2.8,13.7-2.3,14c0.2,0.2,3.2,0.2,6.9,0.2
	c0.1-2.2,0.3-7.9,0.7-8.3c0.5-0.5,7-1.3,7.5-0.8c0.3,0.4,0.1,6.3,0,9c4.4-0.1,8.1-0.3,8.3-0.5c0.4-0.4-1.7-10.1-2.8-14.9
	c3.2-0.3,5.5-0.6,5.6-0.7C32,17.6,29.4,14.7,26.4,11.3z"/>
</svg>
