<svg xmlns="http://www.w3.org/2000/svg" xmlns:xlink="http://www.w3.org/1999/xlink" version="1.1" x="0px" y="0px" viewBox="0 0 35 35" xml:space="preserve"><path fill="#F38630" d="M15.5 26.3c0.7 1.4-0.1 3.2-1.7 4c-1.6 0.8-3.5 0.3-4.2-1.1c-0.7-1.4 0.1-3.2 1.7-4 C12.9 24.4 14.8 24.8 15.5 26.3z M23.8 25.5c-1.6 0.8-2.4 2.5-1.8 3.9c0.7 1.3 2.5 1.7 4.2 0.9c1.6-0.8 2.4-2.5 1.8-3.9 C27.3 25.1 25.5 24.7 23.8 25.5z M30.5 17.1l3-10.2C22 4.8 8.5 8.1 8.5 8.1l0 0C7.8 6.4 7.3 5.7 7.3 5.7S3.9 6.8 1.5 8.1 c0 0 0.1 1.2 0.8 1.8c0 0 2-0.8 4.2-1.3c2.1 5.9 3 14.2 3 14.2c14.8-1.8 19.7 0 19.7 0l0.9-3.4c-9.7-1.6-18.4 0-18.4 0 c-0.2-0.8-0.3-1.5-0.5-2.2l0 0C17.5 15.4 30.5 17.1 30.5 17.1z"/></svg>
