<svg xmlns="http://www.w3.org/2000/svg" xmlns:xlink="http://www.w3.org/1999/xlink" version="1.1" x="0px" y="0px" viewBox="0 0 35 35" xml:space="preserve"><path fill="#F38630" d="M32.1 12.4L3 17.1c-0.1-2.7-0.1-4.7 0.2-4.9c0.2-0.2 2-0.7 4.7-1.3c0-1 0-3.3 0.1-3.6 c0.1-0.4 3.2-1.5 3.4-1.4c0.2 0.2 0.8 3.2 0.9 4.1c2.9-0.6 6.2-1.1 9.2-1.7c0-1.2-0.1-4.8 0.1-5.1c0.2-0.3 4.8-1.4 5.1-1.2 c0.2 0.2 0.7 4.2 0.9 5.4c2.5-0.4 4.2-0.5 4.3-0.4C31.9 7.1 32 9.3 32.1 12.4z M31.8 33.5c-0.4 0.6-26.1 1-27 0.6 c-0.5-0.3-1.4-8.7-1.7-15l0 0L3 19c0-0.3 0-0.6 0-1l1.2-0.1l0 0l27.9-3.4C32.2 22.2 32 33 31.8 33.5z M30.3 16.5L4.9 19.6 c0.2 5.9 1 12.6 1.4 12.8c0.4 0.3 23.2-0.2 23.8-0.6C30.4 31.6 30.4 23.5 30.3 16.5z"/></svg>
