<svg xmlns="http://www.w3.org/2000/svg" xmlns:xlink="http://www.w3.org/1999/xlink" version="1.1" x="0px" y="0px" viewBox="0 0 24.8 13.3" xml:space="preserve"><g><path fill="#FFFFFF" d="M2.9 0.9c-1.1 0.1-2 0.9-2 2.4c0 1 0.5 1.6 0.6 1.6c0.1 0 0.1-0.1 0.1-0.1C1.8 4.9 1.8 5 1.8 5 c0 0.4-0.3 0.8-0.6 0.8c-0.1 0-0.1 0-0.2-0.1c-0.3-0.2-1-1-1-2.4C0 0.8 2 0 3.4 0c0.3 0 0.5 0.2 0.5 0.5v8v0.4c0.2 0 0.4 0 0.6-0.1 c0.6 0 0.3 0.9-0.2 0.9c-0.2 0-0.3 0-0.5 0c-0.1 1.4-0.4 2.9-1.8 2.9c-0.8 0-1.3-0.6-1.3-1.4C0.7 10 1.8 9.4 2.9 9V8.9V0.9z M2.9 9.9c-0.8 0.2-1.2 0.7-1.2 1.3c0 0.4 0.2 0.5 0.4 0.5C2.6 11.7 2.8 10.9 2.9 9.9z"/><path fill="#FFFFFF" d="M4.9 1.9c0-0.4 0.3-0.7 0.7-0.7c0.4 0 0.7 0.3 0.7 0.7c0 0.4-0.3 0.7-0.7 0.7C5.3 2.6 4.9 2.3 4.9 1.9z M5.9 7.4c0 0.1 0 0.6 0.3 0.6c0.5 0 0.7-0.8 0.8-1.3c0.1-0.7 0.8-0.2 0.7 0.2C7.5 7.7 7.1 8.7 6 8.7c-0.6 0-1-0.5-1-1.1V4.4 C5 4.2 5 4.1 5 4c0-0.1 0.1-0.2 0.3-0.2c0.4 0 0.6 0.2 0.6 0.5V7.4z"/><path fill="#FFFFFF" d="M7.1 4.4c0-0.2 0-0.3 0-0.4c0-0.1 0.1-0.2 0.3-0.2C7.8 3.8 8 4.1 8 4.3v0.5c0.3-0.7 0.8-1.2 1.3-1.2 c0.8 0 1 0.7 1 1.2v2.5c0 0.1 0 0.6 0.3 0.6c0.5 0 0.7-0.8 0.8-1.3c0-0.3 0.2-0.4 0.3-0.4c0.2 0 0.4 0.3 0.4 0.5c0 0 0 0 0 0.1 c-0.2 0.8-0.7 1.9-1.7 1.9c-0.6 0-1-0.5-1-1.1V5.2c0-0.4 0-0.7-0.3-0.7c-0.3 0-1.1 1-1.2 2v1.8c0 0.2 0 0.5-0.3 0.5 c-0.2 0-0.6-0.1-0.6-0.5V4.4z"/><path fill="#FFFFFF" d="M13.6 9.4V8.2c-0.2 0.2-0.6 0.4-1 0.4c-0.9 0-1.4-0.8-1.4-1.8c0-2 1.4-3.2 2.9-3.2c0.3 0 0.6 0.2 0.6 0.5 c0 0.2 0 0.3-0.2 0.3c-0.1 0-0.2 0-0.3 0c-0.9 0-2 0.8-2 2.5c0 0.6 0.3 1 0.7 1c0.5 0 0.7-0.6 0.8-1.1V5.3c0-0.2 0-0.3 0-0.4 c0-0.1 0.1-0.2 0.3-0.2c0.4 0 0.6 0.2 0.6 0.5v3.3c0.4-0.5 0.8-1.1 1.1-1.9c0.1-0.3 0.2-0.4 0.3-0.4c0.2 0 0.4 0.3 0.4 0.5 c0 0 0 0.1 0 0.1c-0.4 1.4-1.1 2.1-1.8 2.7v2.1c0 1.3-0.6 1.7-1.2 1.7c-0.7 0-1.2-0.6-1.2-1.4C12.1 10.7 12.8 10.1 13.6 9.4z M13.6 11.6v-1.3c-0.4 0.4-0.6 0.9-0.6 1.6c0 0.4 0.1 0.7 0.3 0.7C13.7 12.6 13.6 11.9 13.6 11.6z"/><path fill="#FFFFFF" d="M17.9 9.4V8.2c-0.2 0.2-0.6 0.4-1 0.4c-0.9 0-1.4-0.8-1.4-1.8c0-2 1.4-3.2 2.9-3.2c0.3 0 0.6 0.2 0.6 0.5 c0 0.2 0 0.3-0.2 0.3c-0.1 0-0.2 0-0.3 0c-0.9 0-2 0.8-2 2.5c0 0.6 0.3 1 0.7 1c0.5 0 0.7-0.6 0.8-1.1V5.3c0-0.2 0-0.3 0-0.4 c0-0.1 0.1-0.2 0.3-0.2c0.4 0 0.6 0.2 0.6 0.5v3.3c0.4-0.5 0.8-1.1 1.1-1.9c0.1-0.3 0.2-0.4 0.3-0.4c0.2 0 0.4 0.3 0.4 0.5 c0 0 0 0.1 0 0.1c-0.4 1.4-1.1 2.1-1.8 2.7v2.1c0 1.3-0.6 1.7-1.2 1.7c-0.7 0-1.2-0.6-1.2-1.4C16.4 10.7 17.1 10.1 17.9 9.4z M17.9 11.6v-1.3c-0.4 0.4-0.6 0.9-0.6 1.6c0 0.4 0.1 0.7 0.3 0.7C17.9 12.6 17.9 11.9 17.9 11.6z"/><path fill="#FFFFFF" d="M24.1 6.6c0-0.3 0.2-0.4 0.3-0.4c0.2 0 0.4 0.3 0.4 0.5c0 0 0 0 0 0.1c-0.2 0.8-0.7 1.9-1.7 1.9 c-0.4 0-0.7-0.2-0.9-0.5c-0.2 0.3-0.6 0.5-1 0.5c-0.9 0-1.4-0.8-1.4-1.8c0-2 1.4-3.2 2.9-3.2c0.3 0 0.6 0.2 0.6 0.5 c0 0.2 0 0.3-0.2 0.3c-0.1 0-0.2 0-0.3 0c-0.9 0-2 0.8-2 2.5c0 0.6 0.3 1 0.7 1c0.3 0 0.5-0.3 0.7-0.6V5.5c0-0.2 0-0.3 0-0.4 c0-0.1 0.1-0.2 0.3-0.2c0.4 0 0.6 0.2 0.6 0.5v2c0 0.3 0.1 0.6 0.4 0.6C23.7 7.9 24 7.2 24.1 6.6z"/></g></svg>
