<svg xmlns="http://www.w3.org/2000/svg" xmlns:xlink="http://www.w3.org/1999/xlink" version="1.1" x="0px" y="0px" viewBox="0 0 100 100" xml:space="preserve"><circle fill="#F8991D" cx="50" cy="50" r="50"/><path fill="#FFFFFF" d="M52.6 23.1c-5.4 0.7-9.8 4.7-9.8 12.2c0 4.8 2.4 7.9 3.2 7.9c0.3 0 0.4-0.4 0.7-0.4s0.4 0.5 0.4 0.9 c0 2-1.4 4-2.9 4c-0.4 0-0.7-0.1-1-0.4c-1.5-1-5-4.9-5-11.9c0-12.7 9.8-16.9 16.9-16.9c1.3 0 2.4 1.1 2.4 2.5v39.8v1.8 c1.1-0.2 2.2-0.2 3.2-0.3c2.8-0.2 1.3 4.7-0.8 4.7c-0.9 0-1.7 0.1-2.5 0.1c-0.4 6.9-1.9 14.6-8.8 14.6c-4.1 0-6.7-3.1-6.7-7.1 c0-6.1 5.4-9.4 10.9-11v-0.7V23.1z M52.5 68c-4 1.2-6.1 3.4-6.1 6.4c0 1.8 1 2.6 2.2 2.6C51.2 77 52.2 72.7 52.5 68z"/></svg>