<?xml version="1.0" standalone="no"?>
<!DOCTYPE svg PUBLIC "-//W3C//DTD SVG 1.1//EN" "http://www.w3.org/Graphics/SVG/1.1/DTD/svg11.dtd" >
<svg xmlns="http://www.w3.org/2000/svg">
<metadata>
Created by FontPrep 20130207 at Fri Oct 17 15:41:47 2014
 By Zendy Wongso
Copyright (C) 1996-2005, Hoefler &#38; Frere-Jones, Inc. www.typography.com
</metadata>
<defs>
<font id="6344709564a5911b68738aafdb9f96d6" horiz-adv-x='1024' >
  <font-face 
    font-family="MercuryTextG4-Roman"
    font-weight="400"
    font-stretch="normal"
    units-per-em="2048"
    panose-1="2 0 5 3 0 0 0 0 0 0"
    ascent="1638"
    descent="-410"
    x-height="918"
    cap-height="1305"
    bbox="-76 -494 2075 1538"
    underline-thickness="40"
    underline-position="-184"
    unicode-range="U+0020-007E"
  />
<missing-glyph horiz-adv-x="1024" 
 />
    <glyph glyph-name=".notdef" horiz-adv-x="1024" 
 />
    <glyph glyph-name=".null" horiz-adv-x="0" 
 />
    <glyph glyph-name="nonmarkingreturn" horiz-adv-x="681" 
 />
    <glyph glyph-name="space" unicode=" " horiz-adv-x="450" 
 />
    <glyph glyph-name="exclam" unicode="!" horiz-adv-x="569" 
d="M420 104q0 -51 -39 -96q-45 -39 -96 -39t-97 39q-39 45 -38 96q0 51 38 97q44 39 96 39t97 -39q39 -46 39 -97zM412 1204q0 -117 -31 -323q-13 -131 -23 -202t-21 -161t-18 -139h-65q-6 49 -17 139t-23 181t-32 268q-20 176 -20 237q0 60 36 96t91 35q55 0 88 -37
q35 -34 35 -94z" />
    <glyph glyph-name="quotedbl" unicode="&#x22;" horiz-adv-x="759" 
d="M367 1256q0 -26 2 -39q2 -14 -10 -34q-11 -20 -22 -44t-34 -60q-24 -37 -63 -98l-95 -147l-57 26l55 270l17 66q6 29 12 43q2 14 10 29q35 68 92 67q31 0 62 -24q31 -29 31 -55zM684 1311q33 -29 33 -66q-1 -37 -13 -60q-12 -22 -23 -46t-34 -60q-24 -37 -63 -98
l-95 -147l-57 26l55 270l17 66q6 29 12 43q2 14 10 29q35 68 92 67q29 0 66 -24z" />
    <glyph glyph-name="numbersign" unicode="#" horiz-adv-x="1271" 
d="M817 784h-272l-51 -170l-41 -161h272l55 184zM1182 784h-246l-51 -170l-41 -161h254v-105h-279l-86 -309l-123 27l88 282h-270l-86 -309l-123 27l88 282h-217v105h244l55 184l37 147h-252v105h281l92 328l119 -27l-91 -301h271l92 328l119 -27l-90 -301h215v-105z" />
    <glyph glyph-name="dollar" unicode="$" horiz-adv-x="1120" 
d="M823 282q0 98 -49 152q-53 53 -178 105l-37 -478q117 -5 191 59t73 162zM356 864q56 -56 168 -102l33 432q-109 6 -175 -51t-67 -139q0 -82 41 -140zM991 344q0 -74 -28 -143q-31 -66 -86 -119q-61 -51 -140 -78q-82 -33 -180 -35l-16 -213l-97 8l17 207q-102 7 -176 27
t-154 49l-20 348l77 4q47 -154 111 -227q63 -78 174 -100l37 499q-185 67 -272 152q-41 41 -66 94q-20 57 -20 121t28 131q101 205 379 217l14 187l97 -11l-15 -178q160 -12 273 -53l8 -303l-78 -8q-39 115 -90 177t-125 83l-33 -451q204 -77 295 -160q86 -86 86 -225z" />
    <glyph glyph-name="percent" unicode="%" horiz-adv-x="1658" 
d="M1079 294q0 -124 50 -184t125 -60t118 63q43 65 43 187t-46 184t-122 62t-122 -64t-46 -188zM414 705q164 0 164 251q0 122 -48 184t-122 62t-120 -64t-46 -188q0 -123 51 -184t121 -61zM1573 306q0 -62 -25 -124q-41 -125 -172 -186q-63 -29 -138 -29q-74 0 -136 28
t-94 68q-45 47 -62 105q-49 108 0 250q54 125 174 182q62 29 138 29t135 -27q113 -50 159 -174q22 -60 21 -122zM303 -2l485 655l463 664l105 -66l-486 -651l-462 -666zM735 968q0 -216 -194 -317q-68 -29 -142 -29q-140 1 -231 97q-39 49 -62 104q-20 61 -20 125
q0 130 90 232q104 104 246 104q78 0 131 -27q63 -25 98 -69q43 -43 62 -103q22 -51 22 -117z" />
    <glyph glyph-name="ampersand" unicode="&#x26;" horiz-adv-x="1443" 
d="M807 205l-352 465l-25 -23q-152 -129 -150 -273q0 -72 19 -118q25 -53 57 -80q61 -70 194 -71t257 100zM770 1029q0 81 -41 124t-107 43t-108 -45q-41 -45 -41 -105t22 -104q22 -45 72 -115l51 -67q72 66 112 127t40 142zM858 137q-172 -168 -367 -168t-305 97
q-53 41 -86 106t-32 145q0 141 75 232q82 92 191 147l72 37q-57 80 -84 137q-27 58 -27 124t24 118q31 57 74 92q35 33 107 62q68 20 138 20q140 0 226 -72q39 -35 62 -77q20 -51 20 -95q0 -98 -61 -165q-53 -66 -158 -134l-63 -41l274 -362l174 264l-117 60v69h424v-76
l-166 -61l-260 -328q31 -39 64 -71q58 -51 111 -62q52 -10 110 -10t94 4l19 -57q-137 -103 -287 -103q-57 0 -117 35q-53 35 -129 133z" />
    <glyph glyph-name="quotesingle" unicode="'" horiz-adv-x="436" 
d="M350 1310q32 -26 33 -64q0 -38 -18 -71q-18 -32 -27 -51q-8 -18 -28 -50t-60 -93l-94 -147l-58 26l35 168q15 84 21 103t12 46t10 43t4 19q39 97 105 96q33 1 65 -25z" />
    <glyph glyph-name="parenleft" unicode="(" horiz-adv-x="739" 
d="M305 579q0 -161 35 -305q39 -143 102 -241q112 -200 357 -324l-37 -71q-282 110 -455 344q-188 256 -188 596q0 180 51 330q101 295 342 470q119 88 250 140l37 -72q-113 -57 -201 -135q-293 -268 -293 -732z" />
    <glyph glyph-name="parenright" unicode=")" horiz-adv-x="739" 
d="M621 578q0 -182 -52 -328q-95 -292 -342 -473q-119 -88 -250 -139l-36 71q231 115 358 324q135 231 135 545q0 166 -34 294t-101 250q-72 109 -156 189q-92 80 -202 135l36 72q280 -109 455 -344q88 -119 137 -269q52 -145 52 -327z" />
    <glyph glyph-name="asterisk" unicode="*" horiz-adv-x="868" 
d="M80 1083l57 119l256 -201l21 11l-49 317h139l-49 -317l20 -11l256 201l57 -119l-292 -116v-27l292 -117l-57 -118l-256 200l-20 -10l49 -317h-139l49 317l-21 10l-256 -200l-57 118l293 117v27z" />
    <glyph glyph-name="plus" unicode="+" 
d="M975 565h-373v-389h-139v389h-375v125h375v383h139v-383h373v-125z" />
    <glyph glyph-name="comma" unicode="," horiz-adv-x="473" 
d="M195 -16q-41 0 -69 32t-28 86q0 53 39 95q41 41 105 41t104 -47q41 -47 41 -125q0 -125 -84 -228q-80 -104 -217 -188l-45 53q97 76 155 152t66 133l-14 8q-12 -12 -53 -12z" />
    <glyph glyph-name="hyphen" unicode="-" horiz-adv-x="749" 
d="M647 401h-545v158h545v-158z" />
    <glyph glyph-name="period" unicode="." horiz-adv-x="473" 
d="M373 102q0 -59 -41 -94q-35 -41 -93 -41q-59 0 -99 40t-40 95q0 56 40 96t98 40t94 -41q41 -36 41 -95z" />
    <glyph glyph-name="slash" unicode="/" horiz-adv-x="882" 
d="M958 1479l-428 -953l-399 -956l-137 41l428 952l401 955z" />
    <glyph glyph-name="zero" unicode="0" horiz-adv-x="1171" 
d="M860 633q0 398 -182 516q-52 33 -108 33q-191 0 -238 -285q-23 -102 -23 -263t23 -278q50 -209 160 -258q47 -26 105 -26q173 1 243 305q20 117 20 256zM958 1098q123 -181 123 -468t-135 -474q-144 -187 -372 -187q-122 0 -209 51q-92 49 -154 136q-123 181 -123 467
t135 475q61 84 158 139q94 49 214 49t212 -49q92 -55 151 -139z" />
    <glyph glyph-name="one" unicode="1" horiz-adv-x="806" 
d="M741 0h-647v84l228 63v914l-230 67v76l406 68l20 -17v-1108l223 -63v-84z" />
    <glyph glyph-name="two" unicode="2" horiz-adv-x="1071" 
d="M901 928q0 -88 -22 -158q-45 -143 -261 -340q-143 -127 -290 -250l8 -18h422l133 188l61 -26l-78 -324h-811l-20 74q162 129 252 217q280 247 352 401q45 84 45 190t-64 170t-154 64t-154 -44q-66 -44 -130 -118l-75 68q159 266 413 264q174 0 274 -94t99 -264z" />
    <glyph glyph-name="three" unicode="3" horiz-adv-x="1009" 
d="M479 1133q-139 0 -289 -142l-69 72q169 225 409 223q149 0 240 -76q78 -74 80 -184q0 -59 -19 -108q-25 -53 -57 -87q-50 -64 -201 -137v-20q162 -31 245 -108t83 -228t-131 -262q-53 -47 -143 -80q-86 -27 -174 -27q-257 0 -344 121q-27 35 -27 86t33 90q39 35 97 35
t103 -51q43 -55 23 -156q64 -22 127 -22q174 0 227 121q20 41 21 102q0 268 -418 270v86q212 91 268 142t80 92q18 43 19 86q0 80 -52 121t-131 41z" />
    <glyph glyph-name="four" unicode="4" horiz-adv-x="1148" 
d="M641 496v561h-20l-381 -561h401zM1067 362h-252v-223l213 -59v-80h-616v80l223 59v223h-549l-16 78l589 844l156 -12v-776h252v-134z" />
    <glyph glyph-name="five" unicode="5" horiz-adv-x="1030" 
d="M501 801q177 0 290 -99q122 -104 122 -294q0 -201 -136 -323q-130 -116 -306 -116t-274 56q-102 53 -103 147q0 57 36 93t89 36q155 0 135 -207q49 -22 107 -22q124 0 188 67q37 33 56 86q23 51 23 127t-23 123q-16 45 -58 86q-81 64 -196 66q-63 -1 -103 -13t-102 -36
l-68 28l72 647h467l86 109l84 -19l-45 -272h-488l-37 -289l15 -12q84 31 169 31z" />
    <glyph glyph-name="six" unicode="6" horiz-adv-x="1079" 
d="M795 370q0 150 -70 238t-191 88t-217 -53q-22 -103 -22 -195q-1 -92 21 -162q42 -135 143 -192q47 -27 104 -26q104 0 166 79q66 73 66 223zM891 715q96 -116 96 -296q0 -179 -127 -317q-129 -133 -325 -133q-197 0 -308 113q-129 125 -129 364q0 154 62 305t180 262
t248 187q129 70 295 109l22 -86q-106 -43 -211 -103t-219 -174q-68 -76 -94 -123q-25 -47 -37 -73l16 -9q74 47 134 72t140 25q79 0 142 -35q66 -31 115 -88z" />
    <glyph glyph-name="seven" unicode="7" horiz-adv-x="987" 
d="M772 1073h-475l-113 -164l-82 17l58 391l90 18l47 -82h641l29 -45l-621 -1239h-209l301 500z" />
    <glyph glyph-name="eight" unicode="8" horiz-adv-x="1077" 
d="M303 289q0 -100 70 -162q66 -66 178 -66t178 62q63 63 63 159t-54 147q-82 78 -263 159q-80 -61 -126 -130t-46 -169zM764 987q0 89 -57 147t-159 58t-159 -59q-59 -57 -59 -145t55 -148q65 -65 231 -138q84 74 113 138q35 57 35 147zM975 324q0 -78 -35 -145
q-69 -132 -231 -183q-78 -27 -174 -27q-190 0 -310 92q-57 41 -85 101t-27 121q0 117 77 200q78 80 207 140q-249 120 -247 315q0 141 120 250q126 100 295 99q168 -1 275 -87q43 -33 78 -94q27 -57 26 -119q0 -196 -244 -321q275 -135 275 -342z" />
    <glyph glyph-name="nine" unicode="9" horiz-adv-x="1079" 
d="M784 836q0 158 -75 258q-81 94 -185 94t-172 -80t-68 -241t72 -245q70 -84 190 -83q120 0 216 53q22 86 22 244zM453 397q-80 0 -150 33q-68 37 -115 90q-47 63 -69 131q-27 69 -27 165q0 192 125 335q135 135 325 135t310 -119q129 -129 129 -391q0 -307 -246 -538
q-121 -115 -245 -185t-291 -106l-23 86q226 87 356 207q47 43 70 63q69 69 90 113q14 23 37 69l-16 9q-143 -97 -260 -97z" />
    <glyph glyph-name="colon" unicode=":" horiz-adv-x="493" 
d="M383 102q0 -55 -40 -95t-98 -40t-93 41q-41 35 -41 94t41 95q35 41 93 41t98 -40t40 -96zM383 686q0 -51 -39 -96q-45 -39 -99 -39t-94 40t-40 95t40 95t94 40t99 -39q39 -45 39 -96z" />
    <glyph glyph-name="semicolon" unicode=";" horiz-adv-x="493" 
d="M195 -16q-41 0 -69 32t-28 86q0 53 39 95q41 41 105 41t104 -47q41 -47 41 -125q0 -125 -84 -228q-80 -104 -217 -188l-45 53q97 76 155 152t66 133l-14 8q-12 -12 -53 -12zM389 686q0 -55 -40 -95t-95 -40t-95 40t-40 95t40 95t95 40t95 -40t40 -95z" />
    <glyph glyph-name="less" unicode="&#x3c;" 
d="M907 293l-33 -133l-741 407v119l741 408l33 -129l-620 -338z" />
    <glyph glyph-name="equal" unicode="=" 
d="M952 350h-839v137h839v-137zM952 899v-137h-839v137h839z" />
    <glyph glyph-name="greater" unicode="&#x3e;" 
d="M774 627l-618 340l32 127l740 -408v-119l-740 -407l-32 133z" />
    <glyph glyph-name="question" unicode="?" horiz-adv-x="839" 
d="M518 104q0 -51 -39 -96q-45 -39 -96 -39t-96 39q-39 45 -39 96t39 97q45 39 96 39t96 -39q39 -46 39 -97zM434 379q-129 0 -190 51q-70 53 -71 148q-1 94 66 156t177 120t152 101q42 42 42 117t-53 124q-55 49 -143 49q-46 0 -62 -2t-49 -14q31 -53 31 -105t-35 -88
q-31 -37 -86 -37t-92 39q-37 38 -37 90q0 93 89 150t200 57q112 0 180 -24q63 -19 119 -61q112 -86 112 -224q0 -57 -12 -94t-43 -76q-39 -39 -73 -61t-132 -74t-109 -60t-38 -26q-33 -33 -33 -72t29 -59q23 -20 85 -20t124 14l22 -68q-99 -51 -170 -51z" />
    <glyph glyph-name="at" unicode="@" horiz-adv-x="1892" 
d="M737 373q0 -82 31 -122t78 -40t94 33t115 110l86 379q-54 70 -118 71q-113 2 -204 -132q-82 -128 -82 -299zM1067 903q86 0 139 -47l92 94l50 -10l-125 -561q-51 -221 104 -221q131 0 225 118q51 59 78 148q31 88 31 212q0 259 -180 435q-191 182 -492 182t-522 -217
q-98 -104 -160 -245q-57 -147 -57 -313t53 -298q47 -133 147 -234q207 -210 558 -210q239 0 489 139l39 -51q-242 -187 -578 -189q-180 1 -336 57q-312 113 -446 414q-63 152 -63 342q1 190 69 348q68 160 197 282t299 190t346 68q347 -1 549 -189q97 -84 155 -208t58 -271
t-43 -257t-114 -183t-154 -109q-81 -39 -181 -39t-159 45t-72 121l-29 4q-49 -59 -112 -111q-56 -43 -150 -43t-147 64q-53 70 -53 170q-1 185 161 387q70 78 158 135q90 51 176 51z" />
    <glyph glyph-name="A" unicode="A" horiz-adv-x="1382" 
d="M846 547l-197 551h-16l-193 -551h406zM1386 0h-585v80l194 45l-110 311h-484l-102 -297l152 -59v-80h-459v86l170 59l440 1172h174l443 -1176l167 -55v-86z" />
    <glyph glyph-name="B" unicode="B" horiz-adv-x="1298" 
d="M682 96q291 0 291 262q0 129 -72 201q-76 72 -246 72h-168v-520q62 -15 195 -15zM907 987q0 221 -264 221q-57 0 -86 -4q-33 0 -70 -8v-467h177q117 0 180 68t63 190zM1210 375q0 -183 -128 -279t-357 -96h-672v86l226 47v1038l-226 48v86h619q217 0 335 -77
q117 -77 117 -208t-69 -201q-70 -68 -219 -106v-23q197 -31 286 -108q88 -80 88 -207z" />
    <glyph glyph-name="C" unicode="C" horiz-adv-x="1390" 
d="M790 1335q163 0 291 -69l58 75h84l16 -438l-88 -4q-86 153 -184 244q-96 80 -210 81q-209 2 -315 -159q-112 -152 -110 -389q0 -282 134 -434t380 -152q92 0 162 31l192 256l70 -29l-39 -270q-96 -57 -203 -82q-98 -27 -244 -27t-277 46q-132 45 -225 135
q-198 191 -198 498t202 497t504 190z" />
    <glyph glyph-name="D" unicode="D" horiz-adv-x="1513" 
d="M1182 656q0 399 -310 499q-102 27 -202 27h-174v-1059h219q109 0 188 29q84 25 148 90q131 132 131 414zM55 1305h656q172 0 301 -52q272 -100 368 -344q50 -117 50 -254t-54 -259t-148 -207t-232 -137t-298 -52h-643v86l224 47v1038l-224 48v86z" />
    <glyph glyph-name="E" unicode="E" horiz-adv-x="1323" 
d="M772 1184h-276v-473h106q95 0 136 30t71 136l18 67h72v-571h-72l-18 63q-32 105 -65 130q-32 26 -64 32t-78 6h-106v-481h370q90 0 122 14q32 15 49 33t38 49l121 184l61 -8l-55 -395h-1147v86l224 47v1038l-224 48v86h1059l49 -347l-59 -14l-105 137q-58 72 -90 82
q-41 21 -137 21z" />
    <glyph glyph-name="F" unicode="F" horiz-adv-x="1214" 
d="M762 1184h-266v-482h110q94 0 127 26t49 58q16 33 31 84l18 68h72v-571h-72l-18 63q-33 107 -65 130q-50 36 -142 36h-110v-463l235 -47v-86h-676v86l224 47v1038l-224 48v86h1059l49 -347l-59 -14l-105 137q-45 65 -89 81q-44 18 -66 20t-82 2z" />
    <glyph glyph-name="G" unicode="G" horiz-adv-x="1452" 
d="M775 1335q158 0 294 -69l57 75h84l15 -438l-84 -4q-90 164 -187 248q-98 80 -231 80q-84 0 -158 -39t-119 -107q-51 -61 -83 -167t-31 -240q0 -281 122 -427t332 -147q131 0 252 70v311l-196 47v86h573v-86l-170 -47v-497l-74 -15l-90 105q-114 -70 -254 -99
q-49 -6 -144 -6t-212 43q-243 99 -336 336q-51 117 -51 274q0 158 52 288t143 220q86 94 213 152q125 53 283 53z" />
    <glyph glyph-name="H" unicode="H" horiz-adv-x="1683" 
d="M1188 741v430l-213 48v86h653v-86l-223 -48v-1038l223 -47v-86h-653v86l213 47v479h-692v-479l213 -47v-86h-654v86l224 47v1038l-224 48v86h654v-86l-213 -48v-430h692z" />
    <glyph glyph-name="I" unicode="I" horiz-adv-x="835" 
d="M756 0h-678v86l231 47v1038l-231 48v86h678v-86l-230 -48v-1038l230 -47v-86z" />
    <glyph glyph-name="J" unicode="J" horiz-adv-x="1056" 
d="M197 303q151 0 151 -250q121 2 173 91t52 274v753l-225 48v86h662v-86l-219 -48v-696q0 -131 -25 -221q-20 -90 -80 -156t-141 -100q-79 -35 -177 -35q-163 0 -247 62q-66 59 -67 130q-1 70 42 109t101 39z" />
    <glyph glyph-name="K" unicode="K" horiz-adv-x="1470" 
d="M1456 0h-559v78l139 49l-381 485h-159v-479l194 -47v-86h-635v86l224 47v1038l-224 48v86h635v-86l-194 -48v-442h168l399 430l-154 64v82h484v-86l-187 -72l-397 -408l469 -594l178 -59v-86z" />
    <glyph glyph-name="L" unicode="L" horiz-adv-x="1275" 
d="M55 0v86l224 47v1038l-224 48v86h674v-86l-233 -48v-1044h315q93 -1 121 17t51 40q29 33 43 56l127 184l59 -8l-53 -416h-1104z" />
    <glyph glyph-name="M" unicode="M" horiz-adv-x="1945" 
d="M1890 0h-659v86l223 47v1014h-24l-453 -1147h-105l-450 1147h-25v-995l183 -66v-86h-494v86l182 66v1015l-182 52v86h498l374 -981h31l375 981h526v-86l-223 -48v-1038l223 -47v-86z" />
    <glyph glyph-name="N" unicode="N" horiz-adv-x="1566" 
d="M86 1305h459l139 -209l481 -705h23v762l-203 66v86h518v-86l-182 -66v-1165h-133l-141 209l-621 893h-25v-938l203 -66v-86h-518v86l182 66v999l-182 63v91z" />
    <glyph glyph-name="O" unicode="O" horiz-adv-x="1462" 
d="M1126 651q0 281 -133 441q-115 141 -289 141q-74 0 -135 -29q-69 -24 -121 -92q-116 -150 -116 -459q0 -439 266 -555q166 -53 291 8q141 69 205 286q32 107 32 259zM1374 650q0 -140 -47 -261q-41 -117 -128 -214q-183 -204 -476 -206q-156 0 -272 56q-119 51 -202 147
q-165 191 -165 481q0 141 47 260q41 119 127 215t209 154q125 53 273 53t269 -54q240 -108 322 -368q43 -123 43 -263z" />
    <glyph glyph-name="P" unicode="P" horiz-adv-x="1228" 
d="M924 929q0 144 -84 208t-215 63q-49 0 -68 -4q-20 0 -61 -8v-533q43 -4 61 -8l78 -2q141 0 213 72q76 68 76 212zM702 530q-89 0 -206 19v-416l229 -47v-86h-670v86l224 47v1038l-224 48v86h590q244 -1 377 -93t133 -270q0 -94 -35 -173q-67 -151 -239 -212
q-90 -27 -179 -27z" />
    <glyph glyph-name="Q" unicode="Q" horiz-adv-x="1462" 
d="M1126 651q0 281 -133 441q-115 141 -289 141q-74 0 -135 -29q-69 -24 -121 -92q-116 -150 -116 -459q0 -439 266 -555q166 -53 291 8q141 69 205 286q32 107 32 259zM1374 661q0 -253 -141 -442q-147 -184 -385 -229q116 -161 184 -215q38 -33 111 -74q35 -16 61 -20
q43 -14 97 -18q53 -5 73 -7l-10 -84h-203q-117 0 -187 13q-110 20 -183 116q-25 33 -82 129l-93 158q-133 18 -227 78q-100 55 -168 147q-137 172 -137 440q0 141 47 260q41 119 127 215t209 154q125 53 273 53t269 -54q240 -108 322 -368q43 -123 43 -252z" />
    <glyph glyph-name="R" unicode="R" horiz-adv-x="1363" 
d="M631 1204q-74 0 -135 -12v-498h135q139 0 222 65t83 202q0 243 -305 243zM678 1305q246 0 372 -87q126 -86 126 -236t-101 -224q-100 -78 -276 -113v-22q88 -29 139 -84q61 -57 94 -125l76 -152q38 -68 56 -86t29 -28q39 -37 91 -47q52 -9 100 -15v-86h-210
q-119 0 -175 49q-49 36 -112 168l-115 236q-18 41 -53 81t-87 45t-83 5h-53v-451l213 -47v-86h-654v86l224 47v1038l-224 48v86h623z" />
    <glyph glyph-name="S" unicode="S" horiz-adv-x="1091" 
d="M524 1245q-86 0 -136 -52t-50 -141q0 -90 46 -142t134 -90t128 -54q38 -16 97 -45q248 -113 248 -335q0 -201 -137 -312q-57 -49 -138 -77t-165 -28q-162 0 -297 58l-35 -64h-92l-25 449l91 4q68 -195 165 -277q98 -80 213 -80t170 66q59 61 59 159t-59 154
q-72 80 -270 151q-35 13 -117 52t-149 121q-57 82 -57 188q-1 184 118 289q118 97 302 97q105 0 208 -56l35 61h90l35 -393l-90 -4q-39 80 -81 144q-72 110 -155 143q-37 14 -86 14z" />
    <glyph glyph-name="T" unicode="T" horiz-adv-x="1378" 
d="M946 1192h-137v-1059l238 -47v-86h-693v86l238 47v1059h-152q-83 0 -127 -26t-92 -101l-104 -158l-62 13l72 385h1133l73 -385l-63 -13l-105 158q-60 86 -96 102q-20 14 -53 21q-41 4 -70 4z" />
    <glyph glyph-name="U" unicode="U" horiz-adv-x="1531" 
d="M987 1305h498v-86l-182 -66v-698q0 -111 -37 -197q-69 -185 -265 -258q-98 -35 -219 -35q-248 0 -391 124t-143 374v708l-203 48v86h647v-86l-223 -48v-704q0 -188 94 -274q93 -91 265 -91t256 102t85 281v668l-182 66v86z" />
    <glyph glyph-name="V" unicode="V" horiz-adv-x="1388" 
d="M-2 1305h623v-86l-195 -45l330 -904l327 889l-151 60v86h467v-86l-174 -60l-459 -1171h-113l-460 1175l-195 56v86z" />
    <glyph glyph-name="W" unicode="W" horiz-adv-x="2064" 
d="M1599 1305h476v-82l-181 -58l-403 -1177h-96l-340 932h-4l-369 -932h-96l-396 1188l-190 47v82h598v-82l-190 -37l270 -893h4l309 797l-30 86l-166 47v82h557v-82l-181 -37l314 -895h4l276 874l-166 58v82z" />
    <glyph glyph-name="X" unicode="X" horiz-adv-x="1480" 
d="M1417 0h-610v78l188 37l-282 438l-299 -416l139 -59v-78h-487v82l208 65l383 480l-387 538l-194 54v86h620v-82l-188 -37l266 -410l279 387l-140 60v82h488v-86l-209 -66l-365 -451l406 -567l184 -53v-82z" />
    <glyph glyph-name="Y" unicode="Y" horiz-adv-x="1347" 
d="M1036 0h-692v86l238 47v410l-398 628l-190 48v86h616v-86l-186 -37l315 -510l299 487l-180 60v86h502v-86l-182 -66l-379 -575v-445l237 -47v-86z" />
    <glyph glyph-name="Z" unicode="Z" horiz-adv-x="1327" 
d="M549 1192q-91 0 -122 -20t-62 -46q-4 -6 -20 -24t-23 -33l-97 -139l-69 14l49 361h1001l8 -66l-854 -1124h478q82 0 125 24q43 20 79 84l117 195l70 -8l-53 -410h-1090l-8 66l854 1126h-383z" />
    <glyph glyph-name="bracketleft" unicode="[" horiz-adv-x="661" 
d="M707 1427h-361v-1697h361v-111h-529v1919h529v-111z" />
    <glyph glyph-name="backslash" unicode="\" horiz-adv-x="882" 
d="M61 1518l400 -955l428 -950l-135 -43l-402 956l-428 955z" />
    <glyph glyph-name="bracketright" unicode="]" horiz-adv-x="661" 
d="M315 1427h-360v111h528v-1919h-528v111h360v1697z" />
    <glyph glyph-name="asciicircum" unicode="^" horiz-adv-x="612" 
d="M307 1268l-215 -209l-63 49l247 375h76l234 -375l-64 -49z" />
    <glyph glyph-name="underscore" unicode="_" horiz-adv-x="901" 
d="M905 117v-117h-909v117h909z" />
    <glyph glyph-name="grave" unicode="`" horiz-adv-x="487" 
d="M377 1106l-60 -37q-29 29 -62 61t-65 65q-32 34 -48 48q-15 13 -28 27t-20 20q-27 35 -41 53q-29 49 -19 89t44 66q35 24 77 12t70 -54q10 -14 34 -63t31 -69t46 -112z" />
    <glyph glyph-name="a" unicode="a" horiz-adv-x="974" 
d="M272 250q0 -129 149 -129q81 0 208 90v240q-185 -7 -271 -61t-86 -140zM317 -23q-106 0 -161 62q-60 59 -60 149t36 149q36 58 106 101q155 81 391 97v86q0 125 -49 169t-156 44q-50 0 -70 -6t-63 -23q16 -10 45 -43q18 -31 18 -71q0 -41 -34 -71t-81 -30q-48 0 -80 31
t-32 83t37 101q80 92 233 125q74 18 148 18q133 0 199 -66t65 -204v-510q0 -43 33 -66q48 -15 135 -12l8 -51q-75 -39 -98 -39q-59 -21 -121 -22q-126 -3 -129 147l-19 4q-152 -152 -301 -152z" />
    <glyph glyph-name="b" unicode="b" horiz-adv-x="1095" 
d="M821 444q0 170 -75 264t-182 93q-107 0 -228 -103v-522q55 -51 106 -84q56 -31 112 -31q56 -1 104 19t86 67t55 115q22 65 22 182zM1016 487q0 -209 -137 -360q-136 -160 -369 -160q-113 0 -285 45q-43 14 -75 31v1245l-160 78v72l327 80l19 -15v-700l18 -4
q76 76 138 110q63 41 147 41q164 0 268 -127q51 -57 80 -147t29 -189z" />
    <glyph glyph-name="c" unicode="c" horiz-adv-x="962" 
d="M564 950q158 0 238 -62q79 -62 79 -137t-35 -112t-90 -37t-90 37q-33 39 -33 97t39 108q-20 10 -88 10t-125 -26q-118 -54 -168 -193q-25 -74 -25 -160q0 -156 94 -266q104 -96 240 -94q74 0 121 20q49 16 121 66l51 -58q-151 -176 -363 -176q-100 0 -188 33
q-90 39 -145 98q-125 134 -123 332q0 113 41 210q83 197 270 271q89 39 179 39z" />
    <glyph glyph-name="d" unicode="d" horiz-adv-x="1142" 
d="M274 475q0 -170 75 -263t183 -93t228 102v522q-62 57 -110 86t-108 29q-122 0 -188 -82q-33 -41 -59 -117q-21 -82 -21 -184zM562 952q93 0 198 -22v358l-160 78v72l328 80l18 -15v-1317l144 -75v-70l-308 -74l-20 17l14 153l-18 4q-53 -53 -100 -96t-121 -65
q-206 -46 -349 114q-108 124 -108 340q0 98 35 193q77 195 261 281q93 44 186 44z" />
    <glyph glyph-name="e" unicode="e" horiz-adv-x="989" 
d="M272 565l439 15q-6 139 -60 211q-55 71 -148 71t-156 -77t-75 -220zM920 481h-650q2 -172 86 -268t246 -96q57 0 119 22q61 27 135 76l47 -63q-92 -88 -186 -140q-91 -45 -189 -45q-194 0 -325 131q-59 61 -97 152q-32 94 -32 198t37 197q64 179 240 264q85 41 183 41
t172 -34t117 -93q49 -61 74 -147q23 -95 23 -195z" />
    <glyph glyph-name="f" unicode="f" horiz-adv-x="671" 
d="M725 1284q-95 0 -176 121q-68 -35 -94 -115q-31 -78 -31 -223v-162h254v-125h-254v-655l176 -47v-78h-508v78l146 47v655h-185v78l185 53v99q0 154 45 245q41 91 110 151t129 85t139 25q80 0 126 -37q47 -37 47 -88t-30 -79t-79 -28z" />
    <glyph glyph-name="g" unicode="g" horiz-adv-x="1017" 
d="M811 -122q0 50 -47 85q-45 29 -158 33l-282 4q-113 -63 -113 -166q0 -35 22 -67q52 -56 160 -82q130 -21 238 4q114 37 155 106q25 33 25 83zM659 632q0 108 -46 172t-134 64t-143 -61q-51 -69 -51 -187t52 -176t140 -59q88 0 133 70q49 69 49 177zM713 881
q153 96 243 96q55 0 87 -31t32 -81t-31 -74q-26 -29 -68 -29t-70 28t-29 70l-97 -6l-24 -31q86 -73 86 -192q0 -153 -109 -238q-49 -41 -119 -65q-154 -41 -260 -4q-63 -39 -63 -87q0 -49 32 -69t119 -18l211 4q158 4 236 -56q80 -55 80 -166q0 -146 -140 -249
q-146 -113 -370 -113t-328 68q-53 31 -76 71q-25 37 -24 84q0 139 211 223l-2 19q-61 23 -99 55q-37 35 -37 82q0 99 170 170v16q-72 39 -122 107t-50 152q-1 153 107 247q112 88 257 87t247 -70z" />
    <glyph glyph-name="h" unicode="h" horiz-adv-x="1179" 
d="M526 0h-469v78l146 47v1163l-160 78v72l328 80l18 -15v-715l8 -4q57 54 151 110t174 56t138 -20q103 -55 131 -152q16 -55 17 -112v-541l145 -47v-78h-471v78l139 47v442q0 229 -176 230q-112 0 -256 -95v-577l137 -47v-78z" />
    <glyph glyph-name="i" unicode="i" horiz-adv-x="591" 
d="M541 0h-469v78l145 47v608l-143 76v70l321 73l8 -6v-821l138 -47v-78zM164 1313q0 59 41 100q35 47 98 47t103 -39q38 -41 38 -95t-41 -105q-41 -45 -103 -45t-99 39t-37 98z" />
    <glyph glyph-name="j" unicode="j" horiz-adv-x="583" 
d="M412 23q0 -63 -6 -139t-50 -138q-52 -101 -155 -152q-57 -24 -127 -24t-110 34t-40 79t28 73t68 27q96 0 130 -113q55 29 65 85t10 169v809l-143 76v70l321 73l9 -6v-923zM172 1313q0 59 41 100q35 47 98 47t103 -39q39 -41 39 -95t-41 -105q-42 -45 -104 -45t-99 39
t-37 98z" />
    <glyph glyph-name="k" unicode="k" horiz-adv-x="1079" 
d="M1059 0h-430v72l90 43l-232 313h-98v-303l123 -47v-78h-455v78l146 47v1163l-160 78v72l328 80l18 -15v-977h98l228 254l-115 72v66h432v-78l-180 -64l-256 -250l313 -395l150 -53v-78z" />
    <glyph glyph-name="l" unicode="l" horiz-adv-x="587" 
d="M537 0h-469v78l145 47v1163l-160 78v72l328 80l18 -15v-1378l138 -47v-78z" />
    <glyph glyph-name="m" unicode="m" horiz-adv-x="1720" 
d="M1296 948q252 0 252 -282v-541l148 -47v-78h-465v78l133 47v469q0 203 -156 203q-57 0 -114 -30t-125 -79v-563l139 -47v-78h-457v78l131 47v469q0 203 -161 203q-93 0 -228 -95v-577l131 -47v-78h-463v78l146 47v608l-144 76v70l310 73l18 -16l-14 -154l18 -4
q92 86 164 128t162 42t148 -52t81 -126l17 -4q72 72 151 127q86 55 178 55z" />
    <glyph glyph-name="n" unicode="n" horiz-adv-x="1159" 
d="M395 778q184 172 323 172t210 -86q59 -82 59 -198v-541l146 -47v-78h-471v78l139 47v442q0 229 -170 230q-63 0 -117 -25t-121 -70v-577l137 -47v-78h-469v78l146 47v608l-144 76v70l310 73l18 -16l-14 -154z" />
    <glyph glyph-name="o" unicode="o" horiz-adv-x="1079" 
d="M547 74q113 0 181 91t67 296q0 205 -74 294t-186 89t-179 -90q-72 -90 -72 -286t76 -306q33 -41 86 -68q51 -20 101 -20zM1006 465q0 -206 -127 -346q-59 -70 -151 -111t-202 -41q-212 0 -333 139q-57 62 -89 156q-66 195 2 385q37 92 95 156q143 147 354 147
q111 0 197 -38t137 -101q57 -59 87 -151t30 -195z" />
    <glyph glyph-name="p" unicode="p" horiz-adv-x="1142" 
d="M868 444q0 170 -73 265q-79 92 -185 92t-227 -103v-522q61 -57 109 -86t109 -29q121 0 187 82q35 43 60 119q20 78 20 182zM579 -33q-95 0 -196 23v-283l176 -59v-78h-508v78l146 59v1026l-144 76v70l309 73l19 -16l-14 -154l18 -4q71 76 141 124t157 48q169 0 271 -127
q51 -57 80 -147t29 -188q0 -99 -35 -197q-79 -197 -261 -281q-93 -43 -188 -43z" />
    <glyph glyph-name="q" unicode="q" horiz-adv-x="1095" 
d="M542 856q-264 0 -268 -383q0 -170 74 -264q78 -92 184 -92t228 102v522q-62 57 -110 86t-108 29zM576 950q109 0 227 -39l90 82l53 -6v-1280l146 -59v-78h-508v78l176 59v408l-19 4q-72 -72 -139 -111q-61 -41 -145 -41q-163 0 -269 127q-108 121 -108 338q0 96 35 195
q79 196 262 278q90 45 199 45z" />
    <glyph glyph-name="r" unicode="r" horiz-adv-x="833" 
d="M659 950q68 0 108 -41t40 -100t-35 -98t-88 -39t-82 35t-24 88q-51 -2 -103 -47q-49 -47 -82 -111v-512l152 -47v-78h-484v78l146 47v608l-144 76v70l310 73l18 -16l-16 -178l20 -6q128 198 264 198z" />
    <glyph glyph-name="s" unicode="s" horiz-adv-x="843" 
d="M592 207q0 35 -10 55q-14 58 -178 122t-234 124t-70 169q0 110 96 194q96 83 242 81q148 0 275 -43l6 -227l-74 -14q-51 110 -107 148t-127 38t-106 -35q-37 -31 -37 -82t40 -87t181 -89t216 -115q39 -43 49 -75q16 -37 16 -103t-29 -116q-47 -105 -192 -156
q-78 -20 -150 -21q-151 0 -313 56v258l80 8q42 -126 108 -178q62 -45 141 -45t128 35t49 98z" />
    <glyph glyph-name="t" unicode="t" horiz-adv-x="694" 
d="M184 788h-147v80l164 80l84 244h84v-264h305v-140h-305v-481q0 -49 8 -94q25 -69 94 -76q37 -4 84 -4t123 12l2 -67q-160 -96 -274 -95t-168 60q-53 59 -54 190v555z" />
    <glyph glyph-name="u" unicode="u" horiz-adv-x="1148" 
d="M766 139q-184 -172 -322 -172t-211 86q-59 82 -59 199v496l-143 71v60l311 73l18 -16v-586q0 -229 170 -229q62 1 116 25t122 69v533l-145 71v60l313 73l18 -16v-752l144 -75v-70l-310 -74l-18 17l14 153z" />
    <glyph glyph-name="v" unicode="v" horiz-adv-x="1021" 
d="M623 918h411v-78l-162 -74l-303 -789h-110l-324 809l-139 54v78h475v-74l-123 -43l201 -580h18l92 258l99 307l-135 58v74z" />
    <glyph glyph-name="w" unicode="w" horiz-adv-x="1609" 
d="M1204 918h398v-78l-164 -64l-318 -799h-98l-201 594l-266 -594h-100l-301 820l-140 43v78h471v-68l-137 -43l205 -596h10l213 494l-35 102l-123 43v68h453v-68l-137 -43l182 -580h10l195 564l-117 59v68z" />
    <glyph glyph-name="x" unicode="x" horiz-adv-x="1105" 
d="M649 918h391v-78l-180 -74l-233 -283l282 -352l156 -53v-78h-485v61l131 43l-193 273l-184 -260l102 -56v-61h-389v78l180 72l236 294l-273 342l-157 54v78h485v-62l-131 -43l184 -264l183 252l-105 55v62z" />
    <glyph glyph-name="y" unicode="y" horiz-adv-x="1007" 
d="M-4 918h475v-74l-123 -43l203 -590h18l189 575l-135 58v74h397v-78l-148 -74l-380 -948q-50 -132 -116 -190t-154 -58t-124 37q-41 33 -41 82t33 80t80 30q85 0 145 -100q33 33 51 66t44 96l49 125l-326 800l-137 54v78z" />
    <glyph glyph-name="z" unicode="z" horiz-adv-x="1007" 
d="M930 860l-613 -760h369l174 187l66 -13l-33 -274h-819l-6 57l610 760h-340l-158 -186l-63 12l24 275h783z" />
    <glyph glyph-name="braceleft" unicode="{" horiz-adv-x="794" 
d="M498 930q0 -92 -19 -148q-25 -103 -139 -153q-45 -18 -121 -35v-21q150 -32 207 -92q39 -39 53 -96q18 -55 19 -147v-160q0 -172 63 -250q35 -39 89 -57t159 -37v-84q-260 4 -375 98q-55 49 -86 131q-27 90 -26 207v170q0 74 -15 117q-23 94 -127 131q-66 18 -127 26v107
q153 20 209 76q58 58 60 198v170q0 117 26 207q31 82 86 131q117 95 375 99v-84q-105 -18 -159 -36t-89 -59q-63 -78 -63 -252v-157z" />
    <glyph glyph-name="bar" unicode="|" horiz-adv-x="602" 
d="M373 -494h-144l13 965l-13 965h144l-13 -965z" />
    <glyph glyph-name="braceright" unicode="}" horiz-adv-x="794" 
d="M473 911q0 -73 13 -119q26 -92 128 -128q49 -16 127 -27v-107q-61 -8 -127 -26q-104 -37 -127 -131q-14 -43 -14 -117v-170q0 -117 -27 -207q-31 -82 -86 -131q-118 -96 -374 -98v84q104 18 153 37q59 18 94 57q33 41 50 98q14 57 14 154v158q0 92 18 147q25 102 140 154
q45 18 120 34v21q-147 31 -206 92q-39 39 -55 95t-17 149v160q0 172 -64 249q-35 39 -89 57t-158 38v84q259 -4 374 -99q55 -49 86 -131q27 -90 27 -207v-170z" />
    <glyph glyph-name="asciitilde" unicode="~" horiz-adv-x="759" 
d="M248 782q43 0 78 -16q26 -8 78 -34t75 -37t51 -11t50 29q20 29 49 96l80 -18q-27 -135 -70 -201q-45 -63 -127 -64q-66 0 -167 55q-77 42 -111 43t-54 -30q-20 -25 -49 -94l-80 18q29 140 70 202t127 62z" />
  </font>
</defs>
</svg>
